<svg width="13" height="15" viewBox="0 0 13 15" fill="none" xmlns="http://www.w3.org/2000/svg">
<path d="M12.8801 0.0536895C12.9378 0.0891735 12.9812 0.14071 12.996 0.20121C13.0108 0.319009 12.9852 0.382685 12.9006 0.475805C12.8949 0.481981 12.8892 0.488158 12.8833 0.494522C12.846 0.535609 12.8103 0.577776 12.7743 0.61974C12.7662 0.629119 12.7582 0.638499 12.7498 0.648163C12.6959 0.710806 12.6424 0.773774 12.5893 0.836923C12.5256 0.912455 12.4609 0.9872 12.3956 1.06162C12.3382 1.12703 12.2811 1.19256 12.2258 1.25938C12.1242 1.38204 12.0206 1.50311 11.9134 1.62207C11.8546 1.68758 11.7986 1.7546 11.743 1.82221C11.6944 1.88133 11.6441 1.93902 11.5929 1.99647C11.5528 2.04174 11.5139 2.08781 11.475 2.13387C11.4676 2.14268 11.4601 2.15149 11.4525 2.16057C11.4149 2.20511 11.3774 2.24971 11.34 2.29433C11.2594 2.39013 11.1775 2.48474 11.0934 2.57822C11.047 2.62991 11.0019 2.68221 10.958 2.73552C10.9259 2.77411 10.8931 2.81222 10.8603 2.8503C10.8538 2.85775 10.8474 2.8652 10.8408 2.87288C10.815 2.90283 10.7891 2.93277 10.7632 2.9627C10.6819 3.05687 10.6012 3.15143 10.521 3.24637C10.4685 3.30852 10.4156 3.37033 10.3623 3.43197C10.3038 3.49971 10.2462 3.56797 10.1887 3.63633C10.1531 3.67851 10.1169 3.71987 10.0793 3.7607C10.0576 3.78603 10.0363 3.81161 10.015 3.83719C9.96615 3.89551 9.91642 3.95304 9.86561 4.01006C9.82033 4.0611 9.77646 4.11299 9.7327 4.16501C9.66834 4.2415 9.60288 4.31717 9.53666 4.39244C9.47536 4.46214 9.41521 4.53229 9.35716 4.60407C9.31841 4.65183 9.27785 4.69814 9.23667 4.74431C9.19444 4.79177 9.15326 4.83987 9.11245 4.88827C9.10646 4.89536 9.10047 4.90244 9.0943 4.90974C9.06366 4.9458 9.06366 4.9458 9.03796 4.98457C9.02968 4.98457 9.0214 4.98457 9.01287 4.98457C9.0084 4.99321 9.0084 4.99321 9.00385 5.00203C8.98288 5.03627 8.95735 5.06722 8.93132 5.09863C8.92573 5.1054 8.92015 5.11217 8.9144 5.11915C8.87315 5.16889 8.83057 5.21766 8.78734 5.26611C8.74135 5.31783 8.69666 5.37033 8.65217 5.42303C8.64476 5.43181 8.63735 5.44058 8.62972 5.44962C8.59168 5.49472 8.55372 5.53986 8.51578 5.58502C8.44335 5.67112 8.37021 5.75642 8.29394 5.83997C8.25435 5.88352 8.21716 5.92808 8.1811 5.97389C8.14164 6.02363 8.10036 6.07224 8.05937 6.12102C8.06844 6.12405 8.07752 6.12707 8.08687 6.13019C8.12057 6.14233 8.1519 6.15597 8.18395 6.17109C8.19585 6.1767 8.20775 6.18231 8.22002 6.18809C8.23273 6.19413 8.24544 6.20017 8.25854 6.20639C8.27843 6.21581 8.27843 6.21581 8.29872 6.22542C8.42658 6.28616 8.55336 6.34853 8.67994 6.41126C8.72444 6.43326 8.76906 6.45506 8.8137 6.47685C8.87699 6.50778 8.94005 6.53906 9.003 6.57052C9.11611 6.62703 9.22971 6.68269 9.34377 6.73774C9.52987 6.82757 9.71527 6.91844 9.89984 7.01064C10.0252 7.07328 10.1514 7.13471 10.2778 7.19573C10.4066 7.25791 10.5348 7.32096 10.6629 7.3842C10.7067 7.40578 10.7505 7.42725 10.7944 7.44871C10.8279 7.46509 10.8613 7.48149 10.8948 7.49788C10.9062 7.50347 10.9176 7.50905 10.9293 7.5148C10.9675 7.5335 11.0056 7.55223 11.0438 7.57096C11.0557 7.5768 11.0676 7.58265 11.0799 7.58867C11.1473 7.62179 11.214 7.65564 11.2801 7.69065C11.3216 7.71212 11.3639 7.73197 11.4063 7.75194C11.5429 7.81645 11.6781 7.88265 11.8118 7.95165C11.8704 7.98185 11.9296 8.0108 11.9896 8.03888C12.0382 8.06197 12.0863 8.08604 12.1342 8.11023C12.1804 8.13344 12.2273 8.15497 12.2748 8.17607C12.3561 8.21441 12.4093 8.26201 12.4379 8.33929C12.4483 8.41887 12.4529 8.49556 12.3953 8.56156C12.3587 8.59461 12.3189 8.62023 12.2748 8.64526C12.2648 8.65107 12.2547 8.65687 12.2443 8.66285C12.1725 8.70339 12.099 8.7416 12.0255 8.7797C11.9478 8.82011 11.8715 8.86227 11.7954 8.9048C11.7392 8.93603 11.6822 8.96517 11.6237 8.99307C11.5855 9.01161 11.5487 9.03187 11.5119 9.05231C11.4156 9.10524 11.3183 9.15668 11.221 9.20803C10.9873 9.3309 10.9873 9.3309 10.7586 9.46056C10.7328 9.4751 10.7067 9.48805 10.6797 9.50076C10.617 9.53086 10.5563 9.56352 10.4957 9.59663C10.4075 9.64446 10.319 9.69167 10.2298 9.73801C10.1408 9.78432 10.0522 9.83122 9.96401 9.8787C9.95336 9.88442 9.94271 9.89014 9.93174 9.89603C9.87143 9.92859 9.81203 9.96206 9.75334 9.9968C9.72846 10.0109 9.70317 10.0235 9.67702 10.0358C9.62666 10.0597 9.57807 10.0856 9.52961 10.1123C9.4346 10.1644 9.33869 10.2153 9.24262 10.2659C9.13643 10.3219 9.03046 10.3782 8.92504 10.4353C8.8301 10.4867 8.73448 10.5371 8.63849 10.587C8.57544 10.6199 8.51283 10.6533 8.45065 10.6873C8.37057 10.7312 8.28997 10.7743 8.20914 10.8171C8.19689 10.8236 8.18464 10.8301 8.17202 10.8367C8.1224 10.863 8.07277 10.8892 8.02311 10.9155C7.87464 10.9938 7.72686 11.0731 7.57981 11.1534C7.49084 11.202 7.40116 11.2494 7.31098 11.2962C7.23797 11.3342 7.16553 11.3728 7.09332 11.412C6.99049 11.4676 6.88716 11.5226 6.78359 11.5772C6.58145 11.6839 6.38009 11.7917 6.17928 11.9003C6.02212 11.9852 5.864 12.0688 5.70582 12.1523C5.51625 12.2523 5.32718 12.3531 5.13882 12.4549C5.08967 12.4814 5.04039 12.5077 4.99113 12.5341C4.95797 12.5519 4.9249 12.5697 4.89184 12.5876C4.7651 12.6562 4.63797 12.7242 4.51041 12.7915C4.49922 12.7975 4.49922 12.7975 4.48781 12.8035C4.45052 12.8232 4.41323 12.8429 4.37594 12.8625C4.20013 12.9554 4.02469 13.0486 3.84998 13.143C3.64275 13.2549 3.4349 13.3659 3.22635 13.4759C3.13083 13.5263 3.03564 13.5771 2.94058 13.6282C2.91549 13.6416 2.8904 13.655 2.86531 13.6685C2.81713 13.6943 2.76902 13.7202 2.72098 13.7462C2.58583 13.8193 2.45013 13.8915 2.31402 13.9632C2.21074 14.0177 2.10821 14.073 2.00643 14.1296C1.93383 14.1698 1.85996 14.2078 1.78555 14.2454C1.72081 14.2783 1.65858 14.3134 1.59698 14.3506C1.568 14.367 1.53927 14.3817 1.50901 14.3961C1.43758 14.4303 1.36862 14.4677 1.2994 14.5051C1.27048 14.5207 1.24155 14.5362 1.21261 14.5518C1.20147 14.5578 1.20147 14.5578 1.19009 14.5639C1.10632 14.6089 1.02212 14.6533 0.937922 14.6977C0.843963 14.7473 0.750162 14.797 0.657205 14.848C0.364012 15.0085 0.364012 15.0085 0.218093 14.9941C0.14181 14.9734 0.0817069 14.9342 0.0400472 14.8742C0.00408928 14.8123 -0.00764734 14.7568 0.00481048 14.6881C0.0389386 14.6109 0.0918748 14.5469 0.151442 14.4832C0.167006 14.4662 0.182541 14.4492 0.198049 14.4322C0.209472 14.4196 0.209472 14.4196 0.221126 14.4068C0.25371 14.3704 0.284708 14.3331 0.315325 14.2954C0.320414 14.2892 0.325504 14.2829 0.330747 14.2765C0.352152 14.25 0.373118 14.2233 0.393738 14.1964C0.402018 14.1964 0.410298 14.1964 0.41883 14.1964C0.422123 14.1884 0.425416 14.1804 0.428809 14.1722C0.444115 14.1414 0.461427 14.1188 0.484991 14.0924C0.493192 14.0831 0.501394 14.0738 0.509844 14.0643C0.518623 14.0545 0.527403 14.0446 0.536449 14.0345C0.554816 14.0138 0.573178 13.993 0.591534 13.9723C0.600599 13.962 0.609663 13.9518 0.619003 13.9413C0.653525 13.9023 0.687603 13.863 0.721503 13.8235C0.727481 13.8166 0.733459 13.8096 0.739618 13.8025C0.786755 13.7476 0.833327 13.6923 0.879897 13.6371C0.944314 13.5606 1.0098 13.4849 1.07593 13.4096C1.13339 13.3442 1.1905 13.2786 1.24579 13.2117C1.35449 13.0805 1.46587 12.9512 1.57874 12.8227C1.62785 12.7667 1.67608 12.7103 1.72327 12.6531C1.75667 12.6134 1.79112 12.5744 1.82555 12.5354C1.88372 12.4695 1.94088 12.4031 1.99728 12.336C2.06007 12.2613 2.12396 12.1875 2.18861 12.114C2.25023 12.044 2.3108 11.9734 2.36974 11.9016C2.43683 11.8199 2.50626 11.7399 2.57641 11.6602C2.65535 11.5704 2.73231 11.4793 2.80914 11.3881C2.84711 11.3432 2.88565 11.2986 2.92419 11.254C3.02358 11.1391 3.12273 11.0239 3.22052 10.9079C3.2798 10.8376 3.34 10.768 3.40131 10.6991C3.47934 10.6111 3.55494 10.5215 3.63062 10.4319C3.72127 10.3246 3.81283 10.2181 3.90563 10.1122C3.97478 10.0333 4.04381 9.95446 4.11035 9.87387C4.13459 9.84472 4.15935 9.81594 4.18421 9.78718C4.23354 9.73009 4.28225 9.67264 4.33084 9.61507C4.4049 9.52738 4.47961 9.44013 4.55477 9.35314C4.58001 9.32392 4.60519 9.29466 4.63038 9.2654C4.63937 9.25496 4.64836 9.24452 4.65763 9.23377C4.67581 9.21264 4.69398 9.19149 4.71212 9.17033C4.75171 9.12423 4.79127 9.07814 4.83195 9.03276C4.83769 9.02634 4.84343 9.01991 4.84935 9.01329C4.86048 9.00086 4.87166 8.98846 4.88289 8.9761C4.90669 8.94951 4.92305 8.92889 4.9354 8.89659C4.91597 8.88723 4.91597 8.88723 4.89615 8.87768C4.77317 8.81835 4.6506 8.7584 4.52829 8.69802C4.45305 8.66092 4.37755 8.62425 4.30183 8.58789C4.22383 8.55043 4.14733 8.51123 4.07125 8.47091C4.01987 8.44386 3.96776 8.41985 3.91373 8.39713C3.85082 8.36953 3.79034 8.33798 3.72935 8.30732C3.69057 8.28792 3.65158 8.26888 3.61258 8.24983C3.55373 8.22106 3.49493 8.19222 3.4362 8.16326C3.42414 8.15732 3.41209 8.15137 3.39966 8.14524C3.37481 8.13299 3.34996 8.12073 3.3251 8.10848C3.24944 8.07121 3.17353 8.03437 3.09741 7.99781C3.01979 7.9605 2.94349 7.92162 2.86768 7.88159C2.78725 7.83922 2.70494 7.80046 2.62174 7.7624C2.51777 7.71472 2.41613 7.66434 2.31509 7.61211C2.26716 7.58733 2.21897 7.56296 2.17057 7.53886C2.15779 7.53249 2.14502 7.52613 2.13185 7.51957C2.08429 7.49617 2.03627 7.47349 1.98829 7.45075C1.91617 7.41653 1.84418 7.38212 1.77223 7.34763C1.76426 7.34381 1.75629 7.33999 1.74808 7.33605C1.64511 7.28664 1.54257 7.23672 1.44182 7.18394C1.38571 7.15461 1.32857 7.12721 1.27105 7.10005C1.18114 7.05743 1.09204 7.01354 1.00286 6.96978C0.950267 6.94399 0.897462 6.91862 0.844366 6.89363C0.820923 6.88242 0.797481 6.8712 0.77404 6.85999C0.757971 6.8526 0.757971 6.8526 0.741578 6.84507C0.666451 6.80876 0.600541 6.76273 0.573842 6.68868C0.567417 6.65802 0.567237 6.62819 0.56703 6.59705C0.566852 6.58489 0.566674 6.57274 0.566491 6.56021C0.571863 6.49541 0.602752 6.44914 0.657205 6.40514C0.697059 6.38079 0.738777 6.3598 0.781097 6.33889C0.855432 6.30154 0.92655 6.26334 0.995948 6.21937C1.01296 6.21059 1.03018 6.2021 1.0477 6.1941C1.11613 6.16175 1.18192 6.12592 1.24807 6.09018C1.29226 6.06639 1.33661 6.04284 1.38095 6.01926C1.40051 6.00886 1.42006 5.99846 1.43962 5.98806C1.44935 5.98288 1.45908 5.97771 1.4691 5.97238C1.4961 5.95801 1.52309 5.94363 1.55008 5.92924C1.56767 5.91986 1.58527 5.91049 1.60286 5.90111C1.61637 5.89391 1.61637 5.89391 1.63015 5.88656C1.68902 5.8552 1.74803 5.82406 1.80713 5.79303C1.83732 5.77716 1.86751 5.76128 1.89769 5.74539C1.909 5.73944 1.909 5.73944 1.92054 5.73337C2.02992 5.67571 2.13808 5.61664 2.24454 5.55496C2.29826 5.52397 2.35268 5.49563 2.40924 5.46875C2.46448 5.44197 2.51815 5.41288 2.57204 5.3841C2.59764 5.37047 2.62324 5.35684 2.64884 5.34321C2.66834 5.33282 2.66834 5.33282 2.68824 5.32222C2.72591 5.3022 2.76366 5.28231 2.80145 5.26245C2.92991 5.19487 3.05726 5.12624 3.18232 5.05395C3.23687 5.02258 3.29206 4.99381 3.34943 4.96656C3.41009 4.93695 3.46882 4.90449 3.52789 4.87256C3.55693 4.85693 3.58598 4.84131 3.61503 4.8257C3.62248 4.82169 3.62993 4.81769 3.6376 4.81356C3.71946 4.76959 3.80165 4.72612 3.88389 4.6827C3.89861 4.67492 3.91333 4.66714 3.92806 4.65937C3.957 4.64408 3.98595 4.62879 4.0149 4.61351C4.08155 4.57832 4.14818 4.54311 4.21479 4.50786C4.22604 4.50192 4.23729 4.49598 4.24889 4.48986C4.32786 4.44806 4.40591 4.40509 4.48375 4.36171C4.52397 4.33935 4.56423 4.31705 4.6045 4.29478C4.6143 4.28932 4.6241 4.28387 4.6342 4.27826C4.69079 4.247 4.74808 4.21775 4.80684 4.18971C4.85619 4.1656 4.90393 4.13926 4.95187 4.11311C5.06045 4.05422 5.16949 3.99604 5.27885 3.93827C5.28644 3.93425 5.29404 3.93024 5.30186 3.92611C5.38552 3.8819 5.46928 3.83785 5.5533 3.79416C5.63076 3.75379 5.70732 3.71225 5.78378 3.67046C5.84663 3.63612 5.90971 3.6021 5.9728 3.5681C5.98322 3.56248 5.99364 3.55687 6.00437 3.55108C6.15687 3.46891 6.30978 3.38735 6.46314 3.30641C6.55698 3.25688 6.65064 3.2071 6.74405 3.15696C6.77222 3.14183 6.80041 3.12675 6.82863 3.11171C6.84748 3.10165 6.84748 3.10165 6.86671 3.09139C6.8795 3.08457 6.89229 3.07775 6.90548 3.07073C6.93171 3.05644 6.95746 3.04145 6.98281 3.026C7.01805 3.0067 7.01805 3.0067 7.05568 3.0067C7.05568 2.99949 7.05568 2.99228 7.05568 2.98485C7.06531 2.98019 7.07493 2.97552 7.08484 2.97072C7.18809 2.92007 7.28912 2.86677 7.38971 2.81222C7.47252 2.76732 7.55568 2.72296 7.63908 2.67888C7.73054 2.6305 7.82179 2.58185 7.91274 2.53272C8.322 2.31168 8.322 2.31168 8.52818 2.20448C8.65647 2.13765 8.78354 2.06908 8.91073 2.0007C8.96482 1.97163 9.01896 1.94263 9.07309 1.91362C9.11147 1.89305 9.14982 1.87246 9.18817 1.85185C9.33097 1.77516 9.47399 1.6988 9.61743 1.62302C9.62838 1.61723 9.62838 1.61723 9.63956 1.61132C9.67585 1.59215 9.71214 1.57299 9.74844 1.55382C9.81509 1.51863 9.88172 1.48342 9.94833 1.44818C9.95958 1.44224 9.97083 1.4363 9.98242 1.43018C10.0614 1.38837 10.1395 1.34541 10.2173 1.30202C10.2575 1.27967 10.2978 1.25737 10.338 1.23509C10.3478 1.22964 10.3576 1.22419 10.3677 1.21857C10.4243 1.18734 10.4815 1.15809 10.5403 1.13007C10.5902 1.10571 10.6385 1.07915 10.687 1.05274C10.7103 1.04013 10.7335 1.02752 10.7568 1.01492C10.7751 1.00499 10.7751 1.00499 10.7938 0.994869C10.8603 0.958916 10.9269 0.923182 10.9936 0.887462C11.0073 0.8801 11.021 0.872738 11.0352 0.865154C11.1374 0.810414 11.2398 0.756046 11.3424 0.701797C11.4307 0.655047 11.5185 0.607737 11.6063 0.560244C11.7163 0.500812 11.8271 0.442402 11.9379 0.384103C12.0144 0.343791 12.0903 0.302831 12.1656 0.260847C12.2251 0.227951 12.2852 0.196084 12.3454 0.164202C12.3637 0.154461 12.3637 0.154461 12.3824 0.144524C12.7094 -0.0289189 12.7094 -0.0289189 12.8801 0.0536895Z" fill="#1D1B1C"/>
</svg>
