<svg width="24" height="24" viewBox="0 0 24 24" fill="none" xmlns="http://www.w3.org/2000/svg">
<g clip-path="url(#clip0_5_157)">
<g filter="url(#filter0_d_5_157)">
<path d="M15.34 17.44C15.604 17.2291 15.8454 16.9911 16.06 16.73C16.2018 16.5528 16.3628 16.3918 16.54 16.25C16.7302 16.1226 16.9349 16.0185 17.15 15.94C17.4964 15.8049 17.8309 15.641 18.15 15.45C18.383 15.294 18.5862 15.0976 18.75 14.87C19.0624 14.3886 19.2418 13.8331 19.27 13.26C19.27 13.2 19.27 13.15 19.27 13.09C19.2812 12.8573 19.3147 12.6263 19.37 12.4C19.4579 12.1956 19.5616 11.9984 19.68 11.81C20.0535 11.2804 20.2717 10.6569 20.31 10.01C20.2717 9.36303 20.0535 8.73962 19.68 8.20999C19.5616 8.02162 19.4579 7.82436 19.37 7.61999C19.3147 7.3937 19.2812 7.16265 19.27 6.92999C19.2531 6.29579 19.0667 5.67768 18.73 5.13999C18.3204 4.64877 17.7845 4.27878 17.18 4.06999C16.9649 3.99144 16.7602 3.88736 16.57 3.75999C16.3952 3.61551 16.2344 3.45479 16.09 3.27999C15.7041 2.76707 15.1854 2.3694 14.59 2.12999C13.9847 1.96257 13.3453 1.96257 12.74 2.12999C12.273 2.23985 11.7869 2.23985 11.32 2.12999C10.7147 1.96257 10.0753 1.96257 9.46996 2.12999C8.87446 2.3694 8.35576 2.76707 7.96996 3.27999C7.82813 3.45718 7.66715 3.61816 7.48996 3.75999C7.29976 3.88736 7.09496 3.99144 6.87996 4.06999C6.26574 4.27112 5.71899 4.63793 5.29996 5.12999C4.96324 5.66768 4.77678 6.28579 4.75996 6.91999C4.74872 7.15265 4.71523 7.3837 4.65996 7.60999C4.57201 7.81436 4.46836 8.01162 4.34996 8.19999C3.97644 8.72962 3.75825 9.35303 3.71996 9.99999C3.75825 10.6469 3.97644 11.2704 4.34996 11.8C4.46836 11.9884 4.57201 12.1856 4.65996 12.39C4.71523 12.6163 4.74872 12.8473 4.75996 13.08C4.75996 13.13 4.75996 13.19 4.75996 13.25C4.78778 13.8263 4.96715 14.3851 5.27996 14.87C5.44375 15.0976 5.64696 15.294 5.87996 15.45C6.18294 15.6386 6.50064 15.8024 6.82996 15.94C7.04496 16.0185 7.24976 16.1226 7.43996 16.25C7.61476 16.3945 7.77548 16.5552 7.91996 16.73C8.13456 16.9911 8.37587 17.2291 8.63996 17.44C8.86846 17.6366 9.13353 17.7861 9.41996 17.88C9.80921 17.9945 10.2189 18.0219 10.62 17.96C10.8389 17.9292 11.056 17.8858 11.27 17.83C11.7369 17.7201 12.223 17.7201 12.69 17.83C12.9039 17.8858 13.121 17.9292 13.34 17.96C13.4898 17.9703 13.6401 17.9703 13.79 17.96C14.0408 17.9619 14.2905 17.9248 14.53 17.85C14.8246 17.7687 15.1 17.6293 15.34 17.44ZM12 14C11.2088 14 10.4355 13.7654 9.77768 13.3259C9.11988 12.8863 8.60719 12.2616 8.30444 11.5307C8.00169 10.7998 7.92247 9.99555 8.07681 9.21962C8.23116 8.4437 8.61212 7.73097 9.17153 7.17156C9.73094 6.61215 10.4437 6.23119 11.2196 6.07684C11.9955 5.9225 12.7998 6.00172 13.5307 6.30447C14.2616 6.60722 14.8863 7.11991 15.3258 7.7777C15.7654 8.4355 16 9.20886 16 9.99999C16 11.0609 15.5785 12.0783 14.8284 12.8284C14.0782 13.5786 13.0608 14 12 14ZM9.13996 18.84C9.46503 18.9335 9.80169 18.9807 10.14 18.98L8.88996 21.45C8.81856 21.5924 8.71415 21.7158 8.58543 21.8097C8.45671 21.9036 8.3074 21.9654 8.14996 21.99H7.99996C7.86597 21.9908 7.73319 21.9646 7.6095 21.9131C7.48582 21.8615 7.37375 21.7857 7.27996 21.69L5.59996 20H2.99996C2.8302 19.9927 2.66438 19.9465 2.51528 19.865C2.36617 19.7836 2.23777 19.6689 2.13996 19.53C2.05219 19.378 2.00598 19.2055 2.00598 19.03C2.00598 18.8544 2.05219 18.682 2.13996 18.53L4.13996 14.65C4.24069 14.9273 4.37862 15.1897 4.54996 15.43C4.79151 15.7562 5.0855 16.04 5.41996 16.27C5.77632 16.4854 6.14721 16.6759 6.52996 16.84C6.60996 16.84 6.84996 16.98 6.94996 17.04C7.04996 17.1 7.12996 17.23 7.24996 17.36C7.47236 17.6635 7.72353 17.9448 7.99996 18.2C8.33483 18.4853 8.72203 18.7026 9.13996 18.84ZM21.85 19.53C21.7566 19.671 21.6306 19.7873 21.4826 19.8692C21.3346 19.951 21.169 19.9959 21 20H18.4L16.72 21.7C16.6262 21.7957 16.5141 21.8715 16.3904 21.9231C16.2667 21.9746 16.1339 22.0008 16 22H15.85C15.6925 21.9754 15.5432 21.9136 15.4145 21.8197C15.2858 21.7258 15.1814 21.6024 15.11 21.46L13.88 19C14.2192 18.9949 14.556 18.941 14.88 18.84C15.2719 18.7155 15.6355 18.515 15.95 18.25C16.272 17.9942 16.5669 17.7061 16.83 17.39C16.9261 17.264 17.0369 17.1498 17.16 17.05L17.6 16.85C17.9692 16.6884 18.3267 16.5013 18.67 16.29C18.9977 16.0668 19.2851 15.7895 19.52 15.47C19.6966 15.2242 19.838 14.955 19.94 14.67L21.94 18.56C22.0089 18.7159 22.0368 18.8869 22.0211 19.0567C22.0053 19.2265 21.9464 19.3894 21.85 19.53Z" fill="#D7B677"/>
</g>
</g>
<defs>
<filter id="filter0_d_5_157" x="-0.994019" y="-0.995575" width="26.0194" height="25.9956" filterUnits="userSpaceOnUse" color-interpolation-filters="sRGB">
<feFlood flood-opacity="0" result="BackgroundImageFix"/>
<feColorMatrix in="SourceAlpha" type="matrix" values="0 0 0 0 0 0 0 0 0 0 0 0 0 0 0 0 0 0 127 0" result="hardAlpha"/>
<feOffset/>
<feGaussianBlur stdDeviation="1.5"/>
<feComposite in2="hardAlpha" operator="out"/>
<feColorMatrix type="matrix" values="0 0 0 0 0 0 0 0 0 0 0 0 0 0 0 0 0 0 1 0"/>
<feBlend mode="normal" in2="BackgroundImageFix" result="effect1_dropShadow_5_157"/>
<feBlend mode="normal" in="SourceGraphic" in2="effect1_dropShadow_5_157" result="shape"/>
</filter>
<clipPath id="clip0_5_157">
<rect width="24" height="24" fill="white"/>
</clipPath>
</defs>
</svg>
