<svg width="15" height="15" viewBox="0 0 15 15" fill="none" xmlns="http://www.w3.org/2000/svg">
<g clip-path="url(#clip0_8_11)">
<path d="M5.72073 2.38024C6.51238 0.960081 6.90819 0.25 7.5 0.25C8.09181 0.25 8.48763 0.960075 9.27925 2.38023L9.48407 2.74764C9.70906 3.15121 9.8215 3.35299 9.99694 3.48613C10.1723 3.61927 10.3907 3.66869 10.8276 3.76753L11.2253 3.85752C12.7626 4.20535 13.5313 4.37926 13.7141 4.96733C13.897 5.55538 13.373 6.16819 12.3249 7.39369L12.0538 7.71075C11.756 8.059 11.6071 8.23313 11.5401 8.44856C11.4731 8.664 11.4956 8.89631 11.5406 9.361L11.5816 9.784C11.7401 11.4191 11.8193 12.2367 11.3406 12.6001C10.8618 12.9636 10.1421 12.6322 8.70269 11.9695L8.33031 11.798C7.92131 11.6097 7.71681 11.5155 7.5 11.5155C7.28319 11.5155 7.07869 11.6097 6.66969 11.798L6.29731 11.9695C4.85793 12.6322 4.13824 12.9636 3.65947 12.6001C3.1807 12.2367 3.25993 11.4191 3.41838 9.784L3.45936 9.361C3.5044 8.89631 3.52691 8.664 3.45991 8.44856C3.39293 8.23313 3.24402 8.059 2.9462 7.71075L2.67506 7.39369C1.62703 6.16819 1.10301 5.55538 1.28589 4.96733C1.46876 4.37926 2.23741 4.20535 3.77471 3.85752L4.17243 3.76753C4.60928 3.66869 4.82771 3.61927 5.00309 3.48613C5.17847 3.35299 5.29096 3.15121 5.51592 2.74764L5.72073 2.38024Z" fill="black"/>
</g>
<defs>
<clipPath id="clip0_8_11">
<rect width="15" height="15" fill="white"/>
</clipPath>
</defs>
</svg>
